<?xml version="1.0" encoding="UTF-8"?>
<svg id="Layer_1" xmlns="http://www.w3.org/2000/svg" version="1.1" viewBox="0 0 485.56 437">
  <defs>
    <style>
      .st0 {
        fill: #fff;
      }
    </style>
  </defs>
  <path class="st0" d="M100.9,296.72l1.12,18.67c2.06,11.19,10.77,18.21,22.36,18.45l2.49.94c.74.28-.99,2.26-1.61,2.4l-85.63.06-.19-2.5c-.07-.88,25.44.47,25.44-25.38l.05-217.79c-1.03-13.61-9.23-22.81-22.79-22.52l-2.36-.52c-.67-.15-.43-2.01-.22-2.9l106.56.05c51.74,1.65,91.79,28,90.25,82.7-.79,27.84-15.5,52.26-40.33,64.85-13.72,7-28.19,11.17-43.88,11.36l-51.32.6.06,71.52ZM190.18,100.55c-9.49-18.64-26.9-30.63-48.05-30.85l-41.26-.43v152.14s41.22-.38,41.22-.38c20.8-.19,37.73-12.4,47.28-30.55,13.26-25.2,13.6-64.17.82-89.94Z"/>
  <path class="st0" d="M229.72,287.83c4.51-18.5,20.3-36.65,38.72-32.01,5.94,1.5,9.44,6.03,10.09,11.12s-1.46,12.18-7.47,13.22c-12.93,2.25-23.44,9.57-27.48,22.64-5.23,16.93-2.86,35.22,6.41,50.42,15.18,24.87,42.1,38.12,71.13,35.84,23.79-1.87,43.71-16.31,51.63-39.24,5.06-14.65,7.69-29.95,7.7-46.02l.14-208.89c0-6.42-2.2-12.69-5.37-17.56-6.15-9.46-20.64-7.88-20.63-9.1l.02-2.57,85.28-.06,2.05,1.63c.63.5-2.04,1.88-3.02,1.86-9.66-.19-19.28,5.68-21.35,15.8-1.12,5.51-1.66,10.7-1.67,16.7l-.25,185.1c-.02,16.77-2.69,32.51-8.05,48.08-7.56,21.94-22.9,40.12-44.34,49.59-25.18,11.13-54.47,12.44-80.04,2.97-40.95-15.17-63.72-57.49-53.47-99.55Z"/>
  <path class="st0" d="M277.57,331.1c42.5-9.55,51.41-56.94,40.68-94.8-6.6-23.28-25.31-38.66-49.12-42.03-13.11-1.86-25.5-1.32-39.04-1.52.79-2.34,2.86-3.55,4.88-3.63l23.13-.86c38.54-5.13,49.14-50.52,38.46-84.22-6.45-20.36-24.17-34.1-45.47-34.32l-39.39-.41-.26,8.5-23.68-12.09,69.92.14c38.43.08,76.09,18.04,78.54,59.57,1.26,21.36-7.81,40.71-25.82,52.38-8.95,5.8-18.36,9.09-29.01,12.5,43.21,6.83,79.02,31.78,77.92,77-.47,19.5-7.84,36.65-23.07,49.33-23.03,19.18-57.15,21.09-86.15,20.5l-.14-3.36c-.02-.38,15.65.03,27.63-2.67Z"/>
  <path class="st0" d="M151.02,337.25c-.34-.61-1.12-2.42-.72-2.55l2.72-.9c13.81-.11,22.03-10.02,22.72-23.52l.15-81.95c13.19-3.18,24.53-8.06,35.53-16.27l-.02,121.05,9.89.22c.65.01,2.47.24,2.52.86l.26,2.99-73.05.07Z"/>
</svg>
